<?xml version="1.0" encoding="UTF-8"?><svg id="uuid-0ca4ccc3-18eb-402f-b6ee-b747c687ff82" xmlns="http://www.w3.org/2000/svg" viewBox="0 0 50 50"><defs><style>.uuid-58ee0cb6-a6dd-4cdb-a87c-6462665ba9d9{fill:#010101;}.uuid-bd288fe8-d3f9-413b-98f4-bd750b00a3f9{fill:#fff;}.uuid-fa0b6dcc-9c9d-43b0-8be9-ef67641343c7{fill:#feea00;}.uuid-036a103f-b00a-478b-9785-d6ab2adf7e67{fill:#2c59a5;}</style></defs><rect class="uuid-036a103f-b00a-478b-9785-d6ab2adf7e67" x="0" width="50" height="50"/><rect class="uuid-58ee0cb6-a6dd-4cdb-a87c-6462665ba9d9" x="0" y="32.6" width="50" height="17.4"/><g><g><rect class="uuid-58ee0cb6-a6dd-4cdb-a87c-6462665ba9d9" x="0" y="27.96" width="7.14" height="7.14" transform="translate(-27.96 35.1) rotate(-90)"/><rect class="uuid-bd288fe8-d3f9-413b-98f4-bd750b00a3f9" x="7.14" y="27.96" width="7.14" height="7.14" transform="translate(-20.81 42.24) rotate(-90)"/><rect class="uuid-58ee0cb6-a6dd-4cdb-a87c-6462665ba9d9" x="14.29" y="27.96" width="7.14" height="7.14" transform="translate(-13.67 49.39) rotate(-90)"/><rect class="uuid-bd288fe8-d3f9-413b-98f4-bd750b00a3f9" x="21.43" y="27.96" width="7.14" height="7.14" transform="translate(-6.53 56.53) rotate(-90)"/><rect class="uuid-58ee0cb6-a6dd-4cdb-a87c-6462665ba9d9" x="28.57" y="27.96" width="7.14" height="7.14" transform="translate(.61 63.67) rotate(-90)"/><rect class="uuid-bd288fe8-d3f9-413b-98f4-bd750b00a3f9" x="35.71" y="27.96" width="7.14" height="7.14" transform="translate(7.76 70.81) rotate(-90)"/><rect class="uuid-58ee0cb6-a6dd-4cdb-a87c-6462665ba9d9" x="42.86" y="27.96" width="7.14" height="7.14" transform="translate(14.9 77.96) rotate(-90)"/></g><g><rect class="uuid-bd288fe8-d3f9-413b-98f4-bd750b00a3f9" x="0" y="20.98" width="7.14" height="7.14" transform="translate(-20.98 28.12) rotate(-90)"/><rect class="uuid-58ee0cb6-a6dd-4cdb-a87c-6462665ba9d9" x="7.14" y="20.98" width="7.14" height="7.14" transform="translate(-13.84 35.26) rotate(-90)"/><rect class="uuid-bd288fe8-d3f9-413b-98f4-bd750b00a3f9" x="14.29" y="20.98" width="7.14" height="7.14" transform="translate(-6.69 42.41) rotate(-90)"/><rect class="uuid-58ee0cb6-a6dd-4cdb-a87c-6462665ba9d9" x="21.43" y="20.98" width="7.14" height="7.14" transform="translate(.45 49.55) rotate(-90)"/><rect class="uuid-bd288fe8-d3f9-413b-98f4-bd750b00a3f9" x="28.57" y="20.98" width="7.14" height="7.14" transform="translate(7.59 56.69) rotate(-90)"/><rect class="uuid-58ee0cb6-a6dd-4cdb-a87c-6462665ba9d9" x="35.71" y="20.98" width="7.14" height="7.14" transform="translate(14.74 63.84) rotate(-90)"/><rect class="uuid-bd288fe8-d3f9-413b-98f4-bd750b00a3f9" x="42.86" y="20.98" width="7.14" height="7.14" transform="translate(21.88 70.98) rotate(-90)"/></g></g><rect class="uuid-fa0b6dcc-9c9d-43b0-8be9-ef67641343c7" x="28.57" y="5.98" width="7.14" height="7.14" transform="translate(22.59 41.69) rotate(-90)"/><rect class="uuid-fa0b6dcc-9c9d-43b0-8be9-ef67641343c7" x="35.71" y="5.98" width="7.14" height="7.14" transform="translate(29.74 48.84) rotate(-90)"/></svg>